<svg width="120" height="20" viewBox="0 0 120 20" fill="none" xmlns="http://www.w3.org/2000/svg">
<g clip-path="url(#clip0_25_1331)">
<path d="M0 1.01138H4.61171L9.48356 12.9072H9.6914L14.5619 1.01138H19.1736V18.7165H15.5462V7.19351H15.3998L10.8221 18.6314H8.35154L3.77512 7.14902H3.62872V18.7165H0V1.01138Z" fill="white"/>
<path d="M28.2258 18.9768C25.6899 18.9873 23.5815 17.9655 22.439 15.7739C20.9057 12.7437 21.5135 7.90658 24.6808 6.12979C26.9566 4.77169 30.5722 4.97187 32.5147 6.9423C34.082 8.45218 34.4101 10.7955 34.316 13.0198H23.1135V10.7379H30.852C30.9095 7.01164 25.2128 7.2537 25.2808 10.8596C25.3239 11.8959 25.1069 13.8506 25.6481 14.7324C26.5461 16.6924 30.0507 16.8088 30.835 14.6893L34.2375 14.9143C33.6728 17.6789 30.9657 19.0279 28.2258 18.9782V18.9768Z" fill="white"/>
<path d="M41.6048 18.9337C36.4362 19.0514 35.1839 12.0659 36.9578 8.29517C38.3368 4.79262 43.8597 4.02852 45.3707 7.66846H45.4832V1.01138H49.1537V18.7165H45.5263V16.5903H45.3707C44.7054 18.027 43.3146 18.9899 41.6048 18.9337ZM42.7708 16.0029C46.5407 16.0304 46.5747 8.14209 42.7708 8.19573C38.9734 8.14863 38.997 16.0356 42.7708 16.0029Z" fill="white"/>
<path d="M54.0164 3.72628C51.419 3.7446 51.4321 -0.0104678 54.0164 -7.13437e-07C56.6112 -0.0209349 56.6046 3.74199 54.0164 3.72628ZM52.1681 18.7165V5.43765H55.8478V18.7165H52.1681Z" fill="white"/>
<path d="M64.7784 18.9768C57.8608 19.3484 55.9419 9.43347 61.2895 6.13372C64.7418 4.05338 70.6868 5.70849 70.7038 10.348H67.232C66.4267 6.53277 61.6895 7.87126 61.9889 12.0764C61.6804 16.3483 66.4254 17.6501 67.232 13.8493H70.7038C70.5966 17.0247 67.9091 19.0776 64.7784 18.9755V18.9768Z" fill="white"/>
<path d="M76.8528 18.9677C71.8502 19.2948 70.6319 12.3734 75.5534 11.2469C76.7782 10.6843 80.5756 11.2116 80.6449 9.72524C80.7808 7.29818 76.7547 7.48005 76.3181 9.48319L72.9155 9.20712C73.7312 5.0386 79.4828 4.29674 82.62 6.32867C83.7573 7.12547 84.3363 8.29648 84.3259 9.76056V18.7165H80.837V16.8756H80.7338C80.0004 18.3135 78.492 18.9925 76.8554 18.9677H76.8528ZM77.9063 16.4255C80.3403 16.3718 80.8579 14.65 80.6697 12.5605C79.3482 13.305 77.2724 12.7986 76.2305 14.0167C75.4057 15.2152 76.522 16.5563 77.9063 16.4242V16.4255Z" fill="white"/>
<path d="M87.1834 18.7165V5.43766H90.7507V7.75481H90.8892C91.3912 5.7412 93.3585 4.87767 95.2343 5.37747V8.64582C93.3258 7.98901 90.7755 8.87086 90.8644 11.205V18.7178H87.1847L87.1834 18.7165Z" fill="white"/>
<path d="M119.438 18.8133L119.068 18.5438C118.919 18.4299 118.833 18.549 118.987 18.655L119.357 18.9245C119.506 19.0383 119.592 18.9193 119.438 18.8133Z" fill="white"/>
<path d="M119.505 19.0828C119.548 19.1365 119.59 19.1875 119.633 19.2451L119.616 19.2228C119.616 19.2228 119.62 19.2294 119.622 19.2333L119.604 19.2032C119.656 19.2869 119.709 19.3746 119.762 19.474L119.743 19.4374C119.97 19.7789 119.66 19.1129 119.579 19.0318C119.352 18.672 119.318 18.7937 119.505 19.0828Z" fill="white"/>
<path d="M100.229 10.7379H98.0565V13.0198H100.224V10.8583C100.224 10.8177 100.226 10.7772 100.229 10.7379Z" fill="white"/>
<path d="M117.337 15.999C116.817 15.6064 116.754 14.807 116.093 14.6644C115.648 14.5676 114.943 14.493 114.533 14.8502C113.756 14.7089 111.093 14.6317 109.788 14.7311C108.629 14.7442 105.964 15.0281 104.764 15.8733C102.673 16.9816 100.022 15.5005 100.225 13.0184H98.0578V10.7366H100.23C100.297 7.21052 105.867 7.08491 105.796 10.7366H100.23C100.23 10.7366 100.228 10.7392 100.225 10.7419V13.0198H109.259C109.353 10.7968 109.025 8.45087 107.458 6.9423C105.515 4.97187 101.9 4.77169 99.6238 6.12979C96.4578 7.90396 95.8473 12.745 97.382 15.7739C98.5257 17.9668 100.633 18.986 103.169 18.9768C105.012 19.1011 106.592 18.044 108.371 17.9916C110.16 18.006 110.282 18.0505 110.975 18.2428C111.848 18.5425 112.612 19.7815 113.505 19.9712C114.264 20.1387 117.594 19.5669 118.773 18.7753C119.923 18.0021 118.788 17.1765 117.336 16.0003L117.337 15.999ZM115.663 17.0025C115.512 17.6423 113.852 17.1948 114.043 16.5655C114.194 15.9257 115.854 16.3732 115.663 17.0025Z" fill="white"/>
<path d="M119.779 19.0436C119.718 19.0135 119.658 18.9847 119.595 18.952L119.62 18.9651C119.62 18.9651 119.613 18.9611 119.609 18.9585L119.639 18.9781C119.557 18.9245 119.472 18.8669 119.38 18.8002L119.414 18.8251C119.064 18.6131 119.626 19.0828 119.735 19.1221C120.094 19.351 120.072 19.2267 119.78 19.0436H119.779Z" fill="white"/>
</g>
<defs>
<clipPath id="clip0_25_1331">
<rect width="120" height="20" fill="white"/>
</clipPath>
</defs>
</svg>
